<svg width="18" height="18" viewBox="0 0 18 18" fill="none" xmlns="http://www.w3.org/2000/svg">
<path d="M9.12061 0.162598C6.81144 0.162598 6.52315 0.173223 5.61648 0.213598C4.71123 0.256098 4.09498 0.398473 3.55311 0.608848C2.99423 0.825598 2.51965 1.11672 2.04719 1.58918C1.57473 2.06164 1.2829 2.53551 1.06686 3.0951C0.85648 3.63697 0.713397 4.25322 0.671605 5.15847C0.629105 6.06514 0.620605 6.35343 0.620605 8.6626C0.620605 10.9718 0.63123 11.2601 0.671605 12.1667C0.714105 13.0713 0.85648 13.6882 1.06686 14.2301C1.28361 14.7883 1.57473 15.2636 2.04719 15.736C2.51965 16.2078 2.99352 16.5003 3.55311 16.7163C4.09569 16.926 4.71194 17.0698 5.61648 17.1116C6.52315 17.1541 6.81144 17.1626 9.12061 17.1626C11.4298 17.1626 11.7181 17.152 12.6247 17.1116C13.5293 17.0691 14.1462 16.926 14.6881 16.7163C15.2463 16.4996 15.7216 16.2078 16.194 15.736C16.6658 15.2636 16.9583 14.7904 17.1744 14.2301C17.384 13.6882 17.5278 13.0713 17.5696 12.1667C17.6121 11.2601 17.6206 10.9718 17.6206 8.6626C17.6206 6.35343 17.61 6.06514 17.5696 5.15847C17.5271 4.25393 17.384 3.63626 17.1744 3.0951C16.9576 2.53622 16.6658 2.06164 16.194 1.58918C15.7216 1.11672 15.2484 0.824889 14.6881 0.608848C14.1462 0.398473 13.5293 0.255389 12.6247 0.213598C11.7181 0.171098 11.4298 0.162598 9.12061 0.162598ZM9.12061 1.6926C11.3894 1.6926 11.66 1.70393 12.556 1.74289C13.3848 1.78185 13.8346 1.91926 14.1335 2.03685C14.5316 2.19056 14.8135 2.37472 15.1124 2.67151C15.4092 2.96901 15.5934 3.25164 15.7471 3.64972C15.8632 3.94864 16.0021 4.39843 16.0396 5.22718C16.08 6.12393 16.0892 6.3931 16.0892 8.6626C16.0892 10.9321 16.0786 11.202 16.0368 12.098C15.9936 12.9268 15.8554 13.3766 15.7386 13.6755C15.5799 14.0736 15.3993 14.3555 15.1018 14.6544C14.805 14.9512 14.5181 15.1353 14.1243 15.2891C13.8268 15.4052 13.3699 15.5441 12.5411 15.5816C11.6387 15.622 11.3731 15.6312 9.09936 15.6312C6.8249 15.6312 6.55927 15.6206 5.65756 15.5788C4.82811 15.5356 4.37123 15.3974 4.07373 15.2806C3.67069 15.1219 3.39373 14.9413 3.09694 14.6438C2.79873 14.347 2.60819 14.0601 2.45944 13.6663C2.34256 13.3688 2.20515 12.9119 2.16194 12.0831C2.13006 11.1906 2.11873 10.9151 2.11873 8.65197C2.11873 6.38814 2.13006 6.11189 2.16194 5.20876C2.20515 4.38001 2.34256 3.92385 2.45944 3.62635C2.60819 3.2226 2.79873 2.94635 3.09694 2.64814C3.39373 2.35135 3.67069 2.1601 4.07373 2.01206C4.37123 1.89447 4.81819 1.75635 5.64694 1.71385C6.55006 1.68197 6.81569 1.67135 9.08873 1.67135L9.12061 1.6926ZM9.12061 4.29785C6.70873 4.29785 4.75586 6.25285 4.75586 8.6626C4.75586 11.0745 6.71086 13.0273 9.12061 13.0273C11.5325 13.0273 13.4854 11.0723 13.4854 8.6626C13.4854 6.25072 11.5304 4.29785 9.12061 4.29785ZM9.12061 11.4959C7.55519 11.4959 6.28727 10.228 6.28727 8.6626C6.28727 7.09718 7.55519 5.82926 9.12061 5.82926C10.686 5.82926 11.9539 7.09718 11.9539 8.6626C11.9539 10.228 10.686 11.4959 9.12061 11.4959ZM14.6782 4.12572C14.6782 4.68885 14.2206 5.14572 13.6582 5.14572C13.0951 5.14572 12.6382 4.68814 12.6382 4.12572C12.6382 3.56331 13.0958 3.10643 13.6582 3.10643C14.2199 3.10572 14.6782 3.56331 14.6782 4.12572Z" fill="white" fill-opacity="0.65"/>
</svg>
