<svg width="18" height="18" viewBox="0 0 18 18" fill="none" xmlns="http://www.w3.org/2000/svg">
<path d="M15.2014 15.162H12.623V11.1218C12.623 10.1583 12.6034 8.91842 11.2793 8.91842C9.93501 8.91842 9.72969 9.96676 9.72969 11.0507V15.162H7.15129V6.85367H9.62812V7.98617H9.6615C10.0076 7.33322 10.8491 6.644 12.1064 6.644C14.7189 6.644 15.2021 8.36342 15.2021 10.6016L15.2014 15.162ZM4.23915 5.71682C3.40919 5.71682 2.74246 5.04501 2.74246 4.21867C2.74246 3.39306 3.40991 2.72198 4.23915 2.72198C5.06621 2.72198 5.73657 3.39306 5.73657 4.21867C5.73657 5.04501 5.06549 5.71682 4.23915 5.71682ZM5.53198 15.162H2.94632V6.85367H5.53198V15.162ZM16.4913 0.324219H1.65204C0.941779 0.324219 0.367188 0.885751 0.367188 1.5786V16.4817C0.367188 17.1753 0.941779 17.7361 1.65204 17.7361H16.4891C17.1987 17.7361 17.7791 17.1753 17.7791 16.4817V1.5786C17.7791 0.885751 17.1987 0.324219 16.4891 0.324219H16.4913Z" fill="#5E5E5E"/>
</svg>
