<svg width="19" height="19" viewBox="0 0 19 19" fill="none" xmlns="http://www.w3.org/2000/svg">
<path d="M15.6413 15.7944H13.0629V11.7541C13.0629 10.7906 13.0433 9.55075 11.7193 9.55075C10.3749 9.55075 10.1696 10.5991 10.1696 11.683V15.7944H7.59123V7.48599H10.0681V8.61849H10.1014C10.4475 7.96554 11.2891 7.27632 12.5464 7.27632C15.1589 7.27632 15.642 8.99575 15.642 11.2339L15.6413 15.7944ZM4.67909 6.34914C3.84913 6.34914 3.1824 5.67733 3.1824 4.851C3.1824 4.02538 3.84985 3.3543 4.67909 3.3543C5.50616 3.3543 6.17651 4.02538 6.17651 4.851C6.17651 5.67733 5.50543 6.34914 4.67909 6.34914ZM5.97192 15.7944H3.38626V7.48599H5.97192V15.7944ZM16.9312 0.956543H2.09198C1.38172 0.956543 0.807129 1.51808 0.807129 2.21092V17.114C0.807129 17.8076 1.38172 18.3684 2.09198 18.3684H16.9291C17.6386 18.3684 18.219 17.8076 18.219 17.114V2.21092C18.219 1.51808 17.6386 0.956543 16.9291 0.956543H16.9312Z" fill="white" fill-opacity="0.65"/>
</svg>
