<svg width="18" height="15" viewBox="0 0 18 15" fill="none" xmlns="http://www.w3.org/2000/svg">
<path d="M17.4624 2.29889C16.8236 2.57968 16.1415 2.77097 15.4233 2.85831C16.1552 2.41727 16.7182 1.72214 16.9846 0.892758C16.2981 1.29338 15.5373 1.585 14.7274 1.74741C14.0806 1.05517 13.1589 0.62207 12.1353 0.62207C10.1741 0.62207 8.58388 2.21227 8.58388 4.17133C8.58388 4.45284 8.61636 4.72353 8.67555 4.98267C5.72325 4.84335 3.10661 3.42567 1.35544 1.28255C1.04722 1.80371 0.874697 2.40933 0.874697 3.06909C0.874697 4.30342 1.50269 5.38834 2.45407 6.02572C1.87155 6.00695 1.32368 5.8467 0.845824 5.58107V5.6251C0.845824 7.34667 2.06789 8.7824 3.69418 9.10939C3.39606 9.18951 3.08134 9.23282 2.75868 9.23282C2.53203 9.23282 2.31476 9.21117 2.09748 9.17075C2.55296 10.5805 3.86237 11.6084 5.42081 11.6373C4.20813 12.5894 2.67134 13.1567 1.01618 13.1567C0.734661 13.1567 0.453868 13.1401 0.171631 13.1083C1.75172 14.1146 3.61333 14.7029 5.62653 14.7029C12.162 14.7029 15.7315 9.29202 15.7315 4.60731C15.7315 4.45645 15.7315 4.30414 15.7207 4.15256C16.4143 3.65522 17.02 3.0265 17.4964 2.31333L17.4624 2.29889Z" fill="white" fill-opacity="0.65"/>
</svg>
