<svg width="19" height="16" viewBox="0 0 19 16" fill="none" xmlns="http://www.w3.org/2000/svg">
<path d="M18.0225 2.66657C17.3837 2.94736 16.7015 3.13864 15.9833 3.22599C16.7153 2.78495 17.2783 2.08982 17.5446 1.26043C16.8582 1.66105 16.0974 1.95267 15.2875 2.11508C14.6407 1.42285 13.7189 0.989746 12.6954 0.989746C10.7341 0.989746 9.14394 2.57995 9.14394 4.539C9.14394 4.82052 9.17642 5.0912 9.23561 5.35034C6.28331 5.21103 3.66667 3.79335 1.9155 1.65022C1.60727 2.17139 1.43476 2.77701 1.43476 3.43676C1.43476 4.6711 2.06275 5.75601 3.01413 6.39339C2.43161 6.37463 1.88374 6.21438 1.40588 5.94874V5.99278C1.40588 7.71435 2.62795 9.15008 4.25424 9.47707C3.95612 9.55719 3.6414 9.6005 3.31874 9.6005C3.09209 9.6005 2.87481 9.57885 2.65754 9.53842C3.11302 10.9482 4.42243 11.9761 5.98086 12.0049C4.76818 12.957 3.2314 13.5244 1.57623 13.5244C1.29472 13.5244 1.01393 13.5078 0.731689 13.476C2.31178 14.4823 4.17339 15.0706 6.18659 15.0706C12.7221 15.0706 16.2915 9.65969 16.2915 4.97499C16.2915 4.82413 16.2915 4.67182 16.2807 4.52023C16.9744 4.02289 17.58 3.39417 18.0564 2.681L18.0225 2.66657Z" fill="#5E5E5E"/>
</svg>
